<svg width="400" height="270" version="1.1" xmlns="http://www.w3.org/2000/svg"><g class="points" display="none"/><g class="path"><path d="M10,98.39039727439649L14.958546222145603,98.34779500512175L20.22965763490021,98.3025072740565L25.57442750775349,98.25658669267364L31.901374720021213,98.20222755256515L37.098881425946445,98.15757220998628L43.32445294465092,98.10408405794601L49.57236922781803,98.05040392671873L55.04328781046069,98.00339951530538L60.5649848827885,97.95595883108263L67.21285770024164,97.89884239913158L72.89212376964161,97.85004793165425L78.26714316884673,97.8038674558569L83.84946919232289,97.75590586675864L90.10340280282449,97.7021740365478L95.0130112182529,97.65999222551349L100.82683933124268,97.6100416432883L108.23836383597155,97.54636415627076L114.44477576453464,97.4930406174017L121.38575397627574,97.43340591610843L127.6923716075725,97.37922144136436L134.4509909913648,97.32115350975414L141.0616749211044,97.26435659302743L147.28131096121697,97.21091943675202L154.4954270475859,97.148938020764L159.67158143077103,97.1044661306251L165.0703823205517,97.05808133174196L170.27271395779462,97.01338453487102L174.8668596332375,96.97391308046L181.34968733533026,96.91821466422002L187.89891002844237,96.86194580310382L192.8768198715816,96.81917716768896L198.82758176438236,96.76805009350448L205.2723710250096,96.71267849158741L212.51844238313382,96.650422525957L220.4613441032938,96.58217961306579L228.0114970272119,96.51731107428049L233.7101122804099,96.46835036470284L240.06108171548232,96.41378483321296L245.8334363013804,96.36419057848579L251.90000659225961,96.31206851497618L257.1583242760356,96.26689070360561L261.96929282959326,96.22555637523422L267.27651640910847,96.17995837979237L273.1439697229536,96.12954706671096L278.3414349749538,96.08489208029116L284.579866375453,96.031293440192L290.5386869338138,95.98009712848813L296.74455982748606,95.92677822083729L302.30970891855753,95.87896421053867L307.04692185987324,95.83826356718555L312.33418840433313,95.79283703631077L318.27795408683784,95.74177007136427L323.91895254555226,95.69330438715966L330.36285680832515,95.63794038886576L335.86652717955513,95.59065458438798L340.38447350195645,95.55183781084736L346.765509071514,95.49701396058822L353.52255047966963,95.43895958644828L359.310754689258,95.38922915674036L365.33964149904574,95.33743085784576L370.8448777044988,95.2901316002129L376.5330198772764,95.24126087204758L383.7058586081178,95.17963409811321L390,95.12555681529338" fill="none" stroke="#1f77b4" opacity="0.8" stroke-width="1.5" display="block"/></g><g class="points" display="none"/><g class="path"><path d="M10,80.43377474932942L15.643265025708454,81.38907713785034L22.244028019581428,82.4699202777978L27.449302791498194,83.29446996518661L33.04016392004243,84.15280477139225L37.780054530293995,84.85835223958424L43.53792629241931,85.68809660999469L50.077485647381046,86.59412158098974L56.29645137949801,87.41985057040986L61.121791729200076,88.03644108343858L66.65648286984018,88.717745083681L71.50959802731548,89.2923525555905L75.77367408334497,89.77963829112531L80.63276437288178,90.31487456716476L86.22588091786554,90.90452951999379L91.9393179656189,91.47765786978891L96.66557741820256,91.92944853255747L104.15463757178216,92.60397243565686L111.8582767302449,93.24489865544666L118.93076337196715,93.78605828541592L125.40473798847499,94.24176490340113L131.7974671169822,94.6545581373455L137.03808273164157,94.96538834294256L143.57751609476574,95.31841903999012L150.3200079271618,95.64191637985854L156.10282876247868,95.88661661076128L163.00019322018082,96.13892996631483L170.10500906379116,96.35384655400404L175.92633000498193,96.49591183417107L179.51256436137277,96.56817540048385L182.51457054073538,96.61972315058642L185.49108130409235,96.662786270374L186.89879465569095,96.68036175680339L188.3702142430685,96.69681694373915L189.91683360629972,96.71200237340369L191.4017392750491,96.72454630512246L192.77604993796865,96.73437909702994L193.45984393571678,96.73863506217916L194.03488394570664,96.74188680339469L195.12339870328458,96.74722331143829L195.74863111466817,96.7498040289108L196.39804438089442,96.75211024217404L196.99556424002424,96.75389525527947L197.61661472741272,96.75540834553516L198.3097942276608,96.75668521912411L199.00445544414387,96.75752887134897L199.39504052490764,96.75781155271994L199.86630785488344,96.75796896251546L200.26999614258008,96.75794408084647L200.76172269989033,96.7577146721946L201.62266990383688,96.75678639206953L202.07326895651715,96.7560333143152L202.52777147711404,96.75508769330696L203.31290837931505,96.75301405236826L204.13815681138684,96.7502335207549L205.04572891842489,96.74646446660026L206.00491026069196,96.74167140636038L207.06824880562027,96.73538537029356L208.0112615415925,96.72895509503562L208.9267040291091,96.7219434959301L209.90037814735848,96.71365412811897L211.13611781863196,96.70189905982198L212.21942842962133,96.69045795953528L214.16923723749045,96.66719128981504L215.75547556868437,96.64572667014897L217.55283490289173,96.61865517254685L220.69301959173023,96.56434710789986L223.79323559584634,96.50198187208773L227.50220877101523,96.41595041966508L233.3910868158557,96.25379674101745L240.0828277870518,96.03146725348219L245.78325391073872,95.81013039927376L250.87907595201057,95.58739139293607L257.31260353919504,95.27263990179677L262.86989329300445,94.97062454265182L269.0320194803447,94.60308298870149L274.19347308099515,94.26879781258543L280.74582971528486,93.80972255043542L286.15233120190015,93.40169203491172L292.0081858414589,92.9299261652834L298.25226481282635,92.3927191512683L304.16287616387996,91.85171553890297L310.6316330342537,91.22341306483634L316.53110490535494,90.61740975609072L322.0713649772982,90.01964562300105L326.54498273827005,89.51670892943338L331.4044297560794,88.94988763094483L337.3191219366282,88.23116280801119L342.44939036025517,87.58213442695455L347.28362764321787,86.94877429870724L353.16063126215033,86.15032998201482L359.1850050824497,85.2994425250671L364.70961307260086,84.4902907984667L370.7675862939443,83.57129161779841L377.19195973980453,82.56044723967696L383.4337237025318,81.54258556759342L390,80.43377474932942" fill="none" stroke="#ff7f0e" opacity="0.8" stroke-width="1.5" display="block"/></g><g class="points" display="none"/><g class="path"><path d="M10,260L16.53035060441512,243.73987746100622L21.937135600879742,231.12454713095389L28.934306428446156,215.8986181723375L34.6869910949225,204.27872013939646L40.04479135966717,194.1596295456239L45.76377400996099,184.08131633295739L50.308849763464096,176.58676618524146L55.43605695186381,168.66165756510603L60.97082184383376,160.71511657567925L66.06313516488167,153.94158478946932L70.77596159877874,148.11514803197664L75.39369799370016,142.80390054410168L80.35234385546495,137.52263018021708L85.96809798031722,132.0478642364801L91.67172775368265,127.01293925511189L98.6034141301311,121.56879952983425L104.3643385350925,117.57558201732746L111.22175502872254,113.41091374504748L117.42008510248054,110.16074375075513L123.43082943139304,107.44195524380623L128.1249481734535,105.59499378665805L133.61813208609107,103.71974545029806L139.64719931565412,101.98992542532079L145.52588795122384,100.6051494110155L150.1182035193644,99.71188816337909L154.9191385125761,98.93843534479623L158.8306133387155,98.41868916825302L163.34308532311047,97.93027738549372L168.25625762894674,97.51925901205811L173.35622887931507,97.2081280746282L176.0211236320695,97.08611589414176L178.95311830679262,96.97986536627542L181.67883671854975,96.90433970726133L182.75172410543047,96.88010307389206L183.99941633036792,96.85547121356944L185.43004978627704,96.83158849415875L186.25166906753316,96.8198243950429L186.95209656687135,96.81084510393964L187.61438516242018,96.80319634913815L188.24183078235407,96.79666629239014L188.84492626662583,96.7910131242241L189.4247873772357,96.78612445808017L190.1097533184852,96.78100166831717L190.74110568636675,96.77686776635903L191.57559854533224,96.77220650187627L192.27476040919635,96.76894958143592L193.1053662404133,96.76577722745174L193.83550708055031,96.76355228063511L194.52315165034895,96.76188692380106L195.16744814140839,96.76066301222943L196.1070486701176,96.75938117733216L196.9273599892914,96.75866745347216L198.6267632665825,96.75803867700674L201.88843767592437,96.75781676491852L203.72959521345462,96.7567423595901L204.59121954903736,96.75567371917342L205.58674924238764,96.75382703906544L206.24676518010412,96.75217559278593L206.9970486493357,96.74982407481792L207.8170501186547,96.74660863153304L208.23244025161063,96.74469830300839L208.7003300943543,96.74230309849202L209.2191204628309,96.73932872821143L209.7838012357339,96.73568786806823L210.3583776473191,96.73152578347685L210.97975828965676,96.72647421960636L211.52708092947583,96.7215243876015L212.0542640715505,96.7162907525807L212.69405280348096,96.70929463516671L213.28394230594597,96.70218759131814L214.18714691991383,96.69001657637L215.22920589393786,96.67391442130668L216.31714732557188,96.65458101351939L217.3473462966717,96.63373450819546L219.34357063894234,96.58571837214677L221.17296725373177,96.53207698669567L224.6161137032503,96.40297599856194L231.4285232830655,96.01914947723662L238.04544999966328,95.44734934918739L243.3950509820353,94.81310168573546L249.21054975355977,93.92171851174237L255.4521059710199,92.69985317964085L262.8026681309516,90.86268329727471L268.8310388112403,88.99686170950199L274.0931830532807,87.07729574560082L279.33954315144206,84.87185318696038L284.90921709835266,82.1887780655639L292.26918024277796,78.06230196122758L298.4153504638742,74.0718847129734L304.38884224949106,69.68516250993454L309.7331964856176,65.31054003753584L317.3225379811992,58.323983480398425L325.26694308902665,49.97578112677934L332.6305947747145,41.23121911737195L338.9007502557337,32.9779146435304L344.99709546823317,24.20602977167229L351.53821368479043,13.937513711797862L358.3947091337923,2.179312509479473L364.5704860479999,-9.320437622476504L370.57001218266316,-21.349993382736443L376.0483663998774,-33.09956064407953L383.10360396869396,-49.34593430771048L390,-66.48404591031016" fill="none" stroke="#2ca02c" opacity="0.8" stroke-width="1.5" display="block"/></g><g class="points" display="none"/><g class="path"><path d="M10,-1535.662252506706L16.26821170814656,-1330.6718675948368L23.126384704238312,-1129.1836047594452L28.78754608896569,-979.605546485426L33.87379241103957,-857.2898963989674L40.79001415907035,-708.0620581267575L48.13441692993771,-569.5193148703805L54.57032588718793,-463.55371883603505L60.64721859143523,-375.6096539999529L67.30322500689633,-291.6239717562171L73.04847906525339,-228.60579727487539L78.79895581330054,-173.54013357863374L83.67340580118822,-132.61043949585297L89.70120302470428,-88.63815400029927L95.30417618756263,-53.7415026408425L100.88390804652818,-24.133099193816577L106.32162883291873,0.2918400214539929L111.81627083989713,21.00993588780372L117.9480991073685,39.98101495907821L122.77602291893498,52.21018112554631L128.19562915083935,63.459751604540514L134.15497275742266,73.2123917267902L140.7039794392718,81.27267227676518L146.89472763855562,86.79548181491808L153.5733201587598,90.93844490838268L159.4522953927234,93.37201052021945L166.2527158658911,95.13327818229504L172.12141318918037,96.00131737744204L177.16607662515653,96.41745932111095L179.86458192560988,96.55207523232073L181.13318178774728,96.59926414603774L182.58766381866775,96.64283187138648L183.81934427760137,96.67211484047675L184.54659779588775,96.68654156001753L185.15025318213833,96.69706632094523L185.89484730357532,96.70839450925544L186.5179132388999,96.71659175179937L187.23502161164998,96.72471890924314L187.959389170463,96.7316494223212L188.65776450078366,96.7372464289219L189.2834157437234,96.74145578751842L189.91896946457547,96.74503993441837L190.32153013629707,96.74698586351744L190.66700716038926,96.74847315717031L191.25606042352416,96.75065476781998L191.84398421262958,96.75243423735319L192.38799701971143,96.75377158623638L192.9253490158066,96.75483915537015L194.05228877077482,96.75640951050755L195.40020491218607,96.75741629197535L197.9347932630725,96.75795425865587L204.89642576558998,96.75725704191689L205.99164853485445,96.75636267556544L207.167296936107,96.75467152968187L207.74126293312457,96.75347857474085L208.39935036687967,96.75174256314196L208.9670039679713,96.74987849961559L209.4486492271829,96.74799323110312L209.8782148038093,96.74605003913234L210.396102106861,96.74334517903245L210.8975303538309,96.74031138296758L211.50295473138146,96.73604620784835L211.92005807009818,96.73268808022806L212.42165323826717,96.72815515445188L212.8862019243239,96.72343744563818L213.37133715233887,96.7179349378087L214.1002192193491,96.70846384164818L214.85136382603343,96.6970397860209L215.64699127769725,96.68289416426234L216.45538128803986,96.66613334651166L217.5581390719726,96.6389264683859L218.47584847991337,96.61201661554222L220.17472829037138,96.55046259562957L223.57141615509886,96.37128942675366L227.06972782320045,96.08538284055138L233.15189061579338,95.24493579815854L238.83193031870562,93.90975736444804L245.7276900342734,91.28107949356237L252.6769736747145,87.11300817344829L258.13016748497995,82.45508498124835L264.05543366414224,75.6696820871976L270.537400269787,65.74843437834258L277.5147354241645,51.53546945171826L283.46661162765986,35.96286012597193L288.54880913445425,19.74773936872819L294.4392985131434,-2.8808426535338185L299.5384787202844,-26.207036008734747L305.99944244911893,-61.378437555319294L312.9076236333896,-106.81054889300219L318.75164218733056,-152.34336115539622L324.28583218904964,-202.12698358394755L329.87618358967194,-259.6403344941224L334.656566431428,-315.08124946274893L340.80710006561156,-395.63945718531954L346.9181669963523,-486.8477827482875L351.6546296972482,-565.8249727984154L357.33247437786514,-670.7644171144311L361.455047200551,-754.4272312591944L366.3808173146663,-863.1521592533456L371.7129553238787,-992.2468773456455L378.11337725367275,-1163.9186997797874L384.5175458240149,-1355.2474607832712L390,-1535.662252506706" fill="none" stroke="#d62728" opacity="0.8" stroke-width="1.5" display="block"/></g><g class="axes"><g class="x-axis" transform="translate(0,96.25797704484492)"><g class="tick" style="opacity: 1;" transform="translate(10,0)"><line y2="2" x2="0"/><text y="5" x="0" dy=".71em" style="text-anchor: middle;">-10</text></g><g class="tick" style="opacity: 1;" transform="translate(48,0)"><line y2="2" x2="0"/><text y="5" x="0" dy=".71em" style="text-anchor: middle;">-8</text></g><g class="tick" style="opacity: 1;" transform="translate(86,0)"><line y2="2" x2="0"/><text y="5" x="0" dy=".71em" style="text-anchor: middle;">-6</text></g><g class="tick" style="opacity: 1;" transform="translate(124.00000000000001,0)"><line y2="2" x2="0"/><text y="5" x="0" dy=".71em" style="text-anchor: middle;">-4</text></g><g class="tick" style="opacity: 1;" transform="translate(162,0)"><line y2="2" x2="0"/><text y="5" x="0" dy=".71em" style="text-anchor: middle;">-2</text></g><g class="tick" style="opacity: 1;" transform="translate(200,0)"><line y2="2" x2="0"/><text y="5" x="0" dy=".71em" style="text-anchor: middle;">0</text></g><g class="tick" style="opacity: 1;" transform="translate(238.00000000000003,0)"><line y2="2" x2="0"/><text y="5" x="0" dy=".71em" style="text-anchor: middle;">2</text></g><g class="tick" style="opacity: 1;" transform="translate(276,0)"><line y2="2" x2="0"/><text y="5" x="0" dy=".71em" style="text-anchor: middle;">4</text></g><g class="tick" style="opacity: 1;" transform="translate(314,0)"><line y2="2" x2="0"/><text y="5" x="0" dy=".71em" style="text-anchor: middle;">6</text></g><g class="tick" style="opacity: 1;" transform="translate(352,0)"><line y2="2" x2="0"/><text y="5" x="0" dy=".71em" style="text-anchor: middle;">8</text></g><g class="tick" style="opacity: 1;" transform="translate(390,0)"><line y2="2" x2="0"/><text y="5" x="0" dy=".71em" style="text-anchor: middle;">10</text></g><path class="domain" d="M10,2V0H390V2"/></g><g class="y-axis" transform="translate(199.5, 0)"><g class="tick" style="opacity: 1;" transform="translate(0,260)"><line x2="2" y2="0"/><text x="5" y="0" dy=".32em" style="text-anchor: start;">-1,000</text></g><g class="tick" style="opacity: 1;" transform="translate(0,227.351595408969)"><line x2="2" y2="0"/><text x="5" y="0" dy=".32em" style="text-anchor: start;">-800</text></g><g class="tick" style="opacity: 1;" transform="translate(0,194.70319081793798)"><line x2="2" y2="0"/><text x="5" y="0" dy=".32em" style="text-anchor: start;">-600</text></g><g class="tick" style="opacity: 1;" transform="translate(0,162.05478622690697)"><line x2="2" y2="0"/><text x="5" y="0" dy=".32em" style="text-anchor: start;">-400</text></g><g class="tick" style="opacity: 1;" transform="translate(0,129.40638163587593)"><line x2="2" y2="0"/><text x="5" y="0" dy=".32em" style="text-anchor: start;">-200</text></g><g class="tick" style="opacity: 1;" transform="translate(0,96.75797704484492)"><line x2="2" y2="0"/><text x="5" y="0" dy=".32em" style="text-anchor: start;">0</text></g><g class="tick" style="opacity: 1;" transform="translate(0,64.10957245381391)"><line x2="2" y2="0"/><text x="5" y="0" dy=".32em" style="text-anchor: start;">200</text></g><g class="tick" style="opacity: 1;" transform="translate(0,31.4611678627829)"><line x2="2" y2="0"/><text x="5" y="0" dy=".32em" style="text-anchor: start;">400</text></g><path class="domain" d="M2,10H0V260H2"/></g></g><g class="grid"><g class="x-grid"><line x1="10" y1="10.000000000000028" x2="10" y2="260" fill="none" stroke="#7d7d7d" stroke-dasharray="1, 3"/><line x1="48" y1="10.000000000000028" x2="48" y2="260" fill="none" stroke="#7d7d7d" stroke-dasharray="1, 3"/><line x1="86" y1="10.000000000000028" x2="86" y2="260" fill="none" stroke="#7d7d7d" stroke-dasharray="1, 3"/><line x1="124.00000000000001" y1="10.000000000000028" x2="124.00000000000001" y2="260" fill="none" stroke="#7d7d7d" stroke-dasharray="1, 3"/><line x1="162" y1="10.000000000000028" x2="162" y2="260" fill="none" stroke="#7d7d7d" stroke-dasharray="1, 3"/><line x1="200" y1="10.000000000000028" x2="200" y2="260" fill="none" stroke="#7d7d7d" stroke-dasharray="1, 3"/><line x1="238.00000000000003" y1="10.000000000000028" x2="238.00000000000003" y2="260" fill="none" stroke="#7d7d7d" stroke-dasharray="1, 3"/><line x1="276" y1="10.000000000000028" x2="276" y2="260" fill="none" stroke="#7d7d7d" stroke-dasharray="1, 3"/><line x1="314" y1="10.000000000000028" x2="314" y2="260" fill="none" stroke="#7d7d7d" stroke-dasharray="1, 3"/><line x1="352" y1="10.000000000000028" x2="352" y2="260" fill="none" stroke="#7d7d7d" stroke-dasharray="1, 3"/><line x1="390" y1="10.000000000000028" x2="390" y2="260" fill="none" stroke="#7d7d7d" stroke-dasharray="1, 3"/></g><g class="y-grid"><line x1="10" y1="260" x2="390" y2="260" fill="none" stroke="#7d7d7d" stroke-dasharray="1, 3"/><line x1="10" y1="227.351595408969" x2="390" y2="227.351595408969" fill="none" stroke="#7d7d7d" stroke-dasharray="1, 3"/><line x1="10" y1="194.70319081793798" x2="390" y2="194.70319081793798" fill="none" stroke="#7d7d7d" stroke-dasharray="1, 3"/><line x1="10" y1="162.05478622690697" x2="390" y2="162.05478622690697" fill="none" stroke="#7d7d7d" stroke-dasharray="1, 3"/><line x1="10" y1="129.40638163587593" x2="390" y2="129.40638163587593" fill="none" stroke="#7d7d7d" stroke-dasharray="1, 3"/><line x1="10" y1="96.75797704484492" x2="390" y2="96.75797704484492" fill="none" stroke="#7d7d7d" stroke-dasharray="1, 3"/><line x1="10" y1="64.10957245381391" x2="390" y2="64.10957245381391" fill="none" stroke="#7d7d7d" stroke-dasharray="1, 3"/><line x1="10" y1="31.4611678627829" x2="390" y2="31.4611678627829" fill="none" stroke="#7d7d7d" stroke-dasharray="1, 3"/></g></g></svg>