<svg width="400" height="270" version="1.1" xmlns="http://www.w3.org/2000/svg"><g class="points" display="none"/><g class="path"><path d="M200,134.9929576502079L201.9271867389468,134.8632262876417L203.4868394074283,134.55944552615665L204.9746096353015,134.0807968557877L206.22078739717995,133.50669485581756L207.6046552878822,132.61904919711267L208.74522675137976,131.58255504891773L209.64670407212398,130.39484838602849L210.28993361476378,129.0431870492358L210.61369668632133,127.63989483574548L210.64334511216884,126.34737182616254L210.36465766214664,124.79390153812176L209.66657776751762,123.07620384672472L208.58410073896493,121.41028449230478L206.89878594593247,119.59546959561965L204.5760268285961,117.78325994844644L201.74725726987623,116.15378906269606L198.49848162778954,114.7708063164319L195.08685224996677,113.7162572287165L190.58446770021368,112.80226692659807L186.3074582658607,112.34970331273178L182.50002926018934,112.24726315848048L177.83768101901214,112.48157744289853L172.7889081350009,113.17223943744486L168.4667550147072,114.13339765910408L163.16343226441668,115.81707071196311L158.7404399341156,117.7052638061594L153.73461611701578,120.49523176271944L149.6456951814192,123.45287499144726L145.22541676391256,127.68569300042083L141.59518229105421,132.6159732127781L139.4293069814143,137.00277869874083L137.91060631136799,142.41946159876213L137.53336748584644,146.17133316320275L137.7837820228694,150.78749452105063L138.60918671095212,154.72311036764108L139.8454708244812,158.28078625652L141.9593420422362,162.53564834467778L144.5572942961291,166.45004681727286L148.13843491689076,170.67280400581103L152.4998051463696,174.7666641681525L157.29534226338302,178.42840973396437L163.91105102892612,182.50506563209763L169.24945486411403,185.18754630560494L176.17908901770636,188.04364892985706L185.62470450935595,191.0178026406623L194.6732623195142,193.04165289247018L203.49656395875752,194.3409048453779L214.33817490358925,195.11121582954985L222.03327273083607,195.1354534594896L230.70354580972892,194.65517384722716L240.06762880713566,193.52859617889573L248.57870643179874,191.93833031010243L257.42787845175167,189.67566734818695L266.0002830584768,186.83374901530402L273.1352445291002,183.91811393870526L281.2379402012689,179.8988792287862L288.77230034583454,175.34030605467865L295.1718105541343,170.67459810389613L301.75108583648347,164.847307051764L306.7868424179657,159.3744364833629L311.2338010825753,153.40100278703076L315.1953100617519,146.50471451708148L317.432749696487,141.3260659309129L319.38052083641213,134.99295765020793" fill="none" stroke="#1f77b4" opacity="0.8" stroke-width="1.5" display="block"/></g><g class="points" display="none"/><g class="path"><path d="M333.00000000000006,134.9929576502079L332.6062721059056,125.3812577167302L331.4520892982836,115.976509586504L329.8002888772087,107.73763964261235L327.55823278247897,99.60093941945084L324.58280565182685,91.22814626626246L321.4558263028033,84.05159299066992L316.7296810381984,75.0806477956321L311.49263389356133,66.83611674416662L306.1015766715011,59.616177637726736L300.15836012102216,52.74580680190928L292.3637335485316,45.04695587942763L284.7266145942966,38.6338904114873L276.00973083358093,32.412045605645204L271.135336656097,29.36877272596263L265.1894374199204,26.031758244639917L260.1135615953615,23.483244078173584L253.87943937099837,20.702916725733132L247.87116182444444,18.364114928427142L242.66463578305545,16.59232615354054L238.2412703823318,15.26466638968293L233.38547066689748,13.988326428879276L228.02585083070883,12.792753366786656L223.04651333040536,11.87696063432088L218.3554508652021,11.182112721506627L213.02955908381418,10.587204887684237L207.69995772855236,10.195556567099146L202.21004323306298,10.003143320090828L197.02453870077724,10.017170661808422L192.37165555929099,10.191671386000905L187.3196188465235,10.555334476475252L182.43371229577733,11.081019020045972L176.36707888826268,11.975207803353584L170.23146310695194,13.15735378839966L165.02841152460152,14.38475478348127L159.5818293567787,15.898067478888862L154.54670098727647,17.51263458687845L149.81038067706587,19.22835921785193L141.2901449062283,22.824494074450598L132.76801827527157,27.133793665285282L124.69569602252695,31.953448978740624L117.72538606986127,36.77474219911895L111.3226634299062,41.82715681779683L106.01687326583738,46.541301783201675L100.0628523556353,52.50843138815435L95.13347789986558,58.10446939008034L89.77863593357804,65.03330160747743L84.16281950754069,73.5694091404057L79.99781054746589,81.09402189911344L75.75603302303993,90.38531802590279L71.74621847706999,101.89599769247505L69.32817993471124,111.70544635825945L67.82497454795072,121.09120574930583L67.10602687105349,130.00244491328488L67.04310030176879,138.17516691096358L67.58227786135099,146.6775360506835L68.90721888649469,156.0870811038564L72.49597547336266,170.55711806645746L75.04942934502355,177.82154419754062L77.98608056577972,184.74217832368782L83.74464478799685,195.7145521760021L90.0407614351708,205.31606807274215L96.6259517238583,213.6466293322704L103.63782168687418,221.1535495123924L111.56111426328546,228.35877719183304L120.33462001145116,235.09338920602394L128.6423216456639,240.48456817628264L136.17479908285588,244.66533404332046L140.94922025902534,247.00321263829113L146.06613532087292,249.26031853241133L154.63738749320524,252.5042419404037L159.14897864784325,253.95730742417254L163.61803021352029,255.23203307333878L171.79751535010666,257.1572567737818L176.26692465805445,257.9936728096386L180.2982476876574,258.6208757762644L184.6986647790753,259.16998170296756L188.83277349197363,259.5586041133707L194.32359989136003,259.8861260263207L199.9053364687834,260L204.3193640728282,259.93409066915547L209.6570812850943,259.6700676040987L216.7882777023331,259.00013762493643L222.5984078672607,258.1823155819189L227.8891742270205,257.2207828188811L234.10297608156856,255.82069773213496L239.50194465144367,254.35912118293408L244.24056157604795,252.88154960923555L248.90792339158304,251.24117337070513L254.33370508411681,249.09285620414275L259.62589598136003,246.73373554546205L264.5877472438467,244.2702434691902L273.6817780106046,239.06356904238976L281.7417158077456,233.6034644261025L288.2885590675876,228.48437903108245L294.527875658114,222.9303005351141L300.8653559972714,216.4732617779688L305.81401904499216,210.72599271616446L310.1520357723943,205.04900965064792L315.82808094039723,196.43166368689361L320.6463682327941,187.60614337797136L324.12867284667834,179.883256923284L327.14136730811225,171.6861750171886L329.42168125712936,163.79493585338804L331.1892637818255,155.5503547700377L332.3531710237645,147.3066932273877L332.9663636564146,137.80421560143458L332.7404081556499,127.18644136816539L331.38000659502336,115.54142274753337L329.4959034886118,106.48722263553316L326.90945575366453,97.59722552189115L324.02770268092127,89.85678349397705L319.8385877163434,80.77341202619061L314.6632026810861,71.65334054527295L309.5708704889866,64.13635117824313L303.11459101462356,56.03898922368418L297.1033122676461,49.570596279414644L290.7582558577917,43.61458827228958L283.9616774875904,38.044195847275915L278.77679679809347,34.27318856822069L274.0540880583366,31.156061170874096L265.2726451557438,26.07577314916503L258.2518268561211,22.61373165987348L252.3434433259222,20.074073258273643L246.59331111683792,17.90783658045828L240.37668545920013,15.885636742915466L235.27151660582854,14.461937301326628L229.9410416354679,13.194702299903867L224.4833595692879,12.122223142033477L217.83713242994494,11.115205018222014L212.23731207299,10.516151709262658L207.57142264254986,10.188609231798353L201.99870409274845,10L197.30551079749833,10.011540217085809L190.57410004066463,10.300219065587015L182.82079305796384,11.033085552763964L177.21912442530004,11.833293034759635L170.71040621245203,13.054849354960538L165.3899564096239,14.29265680365117L159.43689135879654,15.941607542558046L152.82662334842175,18.113208414750005L146.37257194526822,20.59825570709947L140.95842576074423,22.9784158046088L136.33220901469232,25.23978390172232L130.80383960528758,28.23683094970363L124.79987475476383,31.88625677371607L118.36836310212921,36.30192772134302L113.11017150952102,40.35096228878314L108.0614559395047,44.66294708004639L103.97138952569946,48.50399170427224L95.8432536879384,57.25684562833516L88.11776674656758,67.40246966827607L82.96481299371611,75.60950670871082L78.1906782648975,84.80277110956362L73.675237526791,95.88741602970586L70.7792608515056,105.40466524257346L68.83956018998691,114.27371676142181L67.60679721251998,123.06545188040886L67.00767201002239,133.6502789948288L67.36517475750034,144.25007628332642L69.10768236399862,157.15954841277997L71.8382242377158,168.4032866172098L74.60739715463197,176.66463983547965L78.2700279347718,185.35292840556292L82.74056308637341,193.98430461841835L88.40348663283183,202.9994449242601" fill="none" stroke="#ff7f0e" opacity="0.8" stroke-width="1.5" display="block"/></g><g class="axes"><g class="x-axis" transform="translate(0,134.4929576502079)"><g class="tick" style="opacity: 1;" transform="translate(10,0)"><line y2="2" x2="0"/><text y="5" x="0" dy=".71em" style="text-anchor: middle;">-10</text></g><g class="tick" style="opacity: 1;" transform="translate(48,0)"><line y2="2" x2="0"/><text y="5" x="0" dy=".71em" style="text-anchor: middle;">-8</text></g><g class="tick" style="opacity: 1;" transform="translate(86,0)"><line y2="2" x2="0"/><text y="5" x="0" dy=".71em" style="text-anchor: middle;">-6</text></g><g class="tick" style="opacity: 1;" transform="translate(124.00000000000001,0)"><line y2="2" x2="0"/><text y="5" x="0" dy=".71em" style="text-anchor: middle;">-4</text></g><g class="tick" style="opacity: 1;" transform="translate(162,0)"><line y2="2" x2="0"/><text y="5" x="0" dy=".71em" style="text-anchor: middle;">-2</text></g><g class="tick" style="opacity: 1;" transform="translate(200,0)"><line y2="2" x2="0"/><text y="5" x="0" dy=".71em" style="text-anchor: middle;">0</text></g><g class="tick" style="opacity: 1;" transform="translate(238.00000000000003,0)"><line y2="2" x2="0"/><text y="5" x="0" dy=".71em" style="text-anchor: middle;">2</text></g><g class="tick" style="opacity: 1;" transform="translate(276,0)"><line y2="2" x2="0"/><text y="5" x="0" dy=".71em" style="text-anchor: middle;">4</text></g><g class="tick" style="opacity: 1;" transform="translate(314,0)"><line y2="2" x2="0"/><text y="5" x="0" dy=".71em" style="text-anchor: middle;">6</text></g><g class="tick" style="opacity: 1;" transform="translate(352,0)"><line y2="2" x2="0"/><text y="5" x="0" dy=".71em" style="text-anchor: middle;">8</text></g><g class="tick" style="opacity: 1;" transform="translate(390,0)"><line y2="2" x2="0"/><text y="5" x="0" dy=".71em" style="text-anchor: middle;">10</text></g><path class="domain" d="M10,2V0H390V2"/></g><g class="y-axis" transform="translate(199.5, 0)"><g class="tick" style="opacity: 1;" transform="translate(0,234.99861686129947)"><line x2="2" y2="0"/><text x="5" y="0" dy=".32em" style="text-anchor: start;">-8</text></g><g class="tick" style="opacity: 1;" transform="translate(0,209.99720205852657)"><line x2="2" y2="0"/><text x="5" y="0" dy=".32em" style="text-anchor: start;">-6</text></g><g class="tick" style="opacity: 1;" transform="translate(0,184.99578725575367)"><line x2="2" y2="0"/><text x="5" y="0" dy=".32em" style="text-anchor: start;">-4</text></g><g class="tick" style="opacity: 1;" transform="translate(0,159.99437245298083)"><line x2="2" y2="0"/><text x="5" y="0" dy=".32em" style="text-anchor: start;">-2</text></g><g class="tick" style="opacity: 1;" transform="translate(0,134.9929576502079)"><line x2="2" y2="0"/><text x="5" y="0" dy=".32em" style="text-anchor: start;">0</text></g><g class="tick" style="opacity: 1;" transform="translate(0,109.99154284743503)"><line x2="2" y2="0"/><text x="5" y="0" dy=".32em" style="text-anchor: start;">2</text></g><g class="tick" style="opacity: 1;" transform="translate(0,84.99012804466216)"><line x2="2" y2="0"/><text x="5" y="0" dy=".32em" style="text-anchor: start;">4</text></g><g class="tick" style="opacity: 1;" transform="translate(0,59.98871324188926)"><line x2="2" y2="0"/><text x="5" y="0" dy=".32em" style="text-anchor: start;">6</text></g><g class="tick" style="opacity: 1;" transform="translate(0,34.98729843911639)"><line x2="2" y2="0"/><text x="5" y="0" dy=".32em" style="text-anchor: start;">8</text></g><path class="domain" d="M2,10H0V260H2"/></g></g><g class="grid"><g class="x-grid"><line x1="10" y1="10" x2="10" y2="260" fill="none" stroke="#7d7d7d" stroke-dasharray="1, 3"/><line x1="48" y1="10" x2="48" y2="260" fill="none" stroke="#7d7d7d" stroke-dasharray="1, 3"/><line x1="86" y1="10" x2="86" y2="260" fill="none" stroke="#7d7d7d" stroke-dasharray="1, 3"/><line x1="124.00000000000001" y1="10" x2="124.00000000000001" y2="260" fill="none" stroke="#7d7d7d" stroke-dasharray="1, 3"/><line x1="162" y1="10" x2="162" y2="260" fill="none" stroke="#7d7d7d" stroke-dasharray="1, 3"/><line x1="200" y1="10" x2="200" y2="260" fill="none" stroke="#7d7d7d" stroke-dasharray="1, 3"/><line x1="238.00000000000003" y1="10" x2="238.00000000000003" y2="260" fill="none" stroke="#7d7d7d" stroke-dasharray="1, 3"/><line x1="276" y1="10" x2="276" y2="260" fill="none" stroke="#7d7d7d" stroke-dasharray="1, 3"/><line x1="314" y1="10" x2="314" y2="260" fill="none" stroke="#7d7d7d" stroke-dasharray="1, 3"/><line x1="352" y1="10" x2="352" y2="260" fill="none" stroke="#7d7d7d" stroke-dasharray="1, 3"/><line x1="390" y1="10" x2="390" y2="260" fill="none" stroke="#7d7d7d" stroke-dasharray="1, 3"/></g><g class="y-grid"><line x1="10" y1="234.99861686129947" x2="390" y2="234.99861686129947" fill="none" stroke="#7d7d7d" stroke-dasharray="1, 3"/><line x1="10" y1="209.99720205852657" x2="390" y2="209.99720205852657" fill="none" stroke="#7d7d7d" stroke-dasharray="1, 3"/><line x1="10" y1="184.99578725575367" x2="390" y2="184.99578725575367" fill="none" stroke="#7d7d7d" stroke-dasharray="1, 3"/><line x1="10" y1="159.99437245298083" x2="390" y2="159.99437245298083" fill="none" stroke="#7d7d7d" stroke-dasharray="1, 3"/><line x1="10" y1="134.9929576502079" x2="390" y2="134.9929576502079" fill="none" stroke="#7d7d7d" stroke-dasharray="1, 3"/><line x1="10" y1="109.99154284743503" x2="390" y2="109.99154284743503" fill="none" stroke="#7d7d7d" stroke-dasharray="1, 3"/><line x1="10" y1="84.99012804466216" x2="390" y2="84.99012804466216" fill="none" stroke="#7d7d7d" stroke-dasharray="1, 3"/><line x1="10" y1="59.98871324188926" x2="390" y2="59.98871324188926" fill="none" stroke="#7d7d7d" stroke-dasharray="1, 3"/><line x1="10" y1="34.98729843911639" x2="390" y2="34.98729843911639" fill="none" stroke="#7d7d7d" stroke-dasharray="1, 3"/></g></g></svg>